<svg width="84" height="79" viewBox="0 0 84 79" fill="none" xmlns="http://www.w3.org/2000/svg">
<g id="Frame 6357406">
<g id="Group 39901">
<rect id="bar1" x="33.377" y="36.2744" width="3.89176" height="8.56986" rx="1.94588" fill="#6244A8"/>
<rect id="bar4" x="27.5391" y="38.6133" width="3.89176" height="3.89176" rx="1.94588" fill="#6244A8"/>
<rect id="bar2" x="39.2148" y="32.4785" width="3.89176" height="16.162" rx="1.94588" fill="#6244A8"/>
<rect id="bar3" x="45.0527" y="36.2744" width="3.89176" height="8.56986" rx="1.94588" fill="#6244A8"/>
<rect id="bar5" x="50.8887" y="38.6133" width="3.89176" height="3.89176" rx="1.94588" fill="#6244A8"/>
<path id="Vector" d="M58.4483 11.3959C53.9008 8.09936 48.5611 7.70759 46.5217 10.5209C44.4822 13.3342 46.5154 18.2872 51.0629 21.5838C55.6104 24.8803 60.9501 25.2721 62.9896 22.4588C65.029 19.6455 62.9958 14.6925 58.4483 11.3959Z" fill="#6244A8"/>
<path id="Vector_2" d="M69.3079 30.0716C65.8339 29.9975 62.9206 34.4896 62.8008 40.105C62.6809 45.7204 65.4 50.3327 68.8739 50.4068C72.3479 50.4809 75.2612 45.9888 75.381 40.3734C75.5009 34.7581 72.7818 30.1458 69.3079 30.0716Z" fill="#6244A8"/>
<path id="Vector_3" d="M64.2221 59.504C62.8646 56.3055 57.5727 55.4914 52.4025 57.6858C47.2322 59.8802 44.1414 64.2521 45.499 67.4507C46.8565 70.6492 52.1484 71.4633 57.3186 69.2689C62.4889 67.0745 65.5797 62.7026 64.2221 59.504Z" fill="#6244A8"/>
<path id="Vector_4" d="M29.8187 57.8225C24.7617 55.3785 19.4364 55.9334 17.9244 59.0619C16.4125 62.1905 19.2863 66.7079 24.3434 69.1519C29.4004 71.5959 34.7257 71.041 36.2377 67.9124C37.7496 64.7839 34.8758 60.2665 29.8187 57.8225Z" fill="#6244A8"/>
<path id="Vector_5" d="M12.4407 30.735C8.98211 31.0693 6.61644 35.8724 7.15686 41.463C7.69729 47.0536 10.9392 51.3147 14.3978 50.9804C17.8564 50.646 20.2221 45.8429 19.6816 40.2523C19.1412 34.6617 15.8994 30.4006 12.4407 30.735Z" fill="#6244A8"/>
<path id="Vector_6" d="M34.8276 9.3147C32.6751 6.58694 27.3558 7.19622 22.9466 10.6755C18.5374 14.1549 16.7079 19.1867 18.8604 21.9145C21.0129 24.6422 26.3322 24.033 30.7414 20.5536C35.1506 17.0743 36.9801 12.0425 34.8276 9.3147Z" fill="#6244A8"/>
</g>
</g>
</svg>
