<svg width="17" height="17" viewBox="0 0 17 17" fill="none" xmlns="http://www.w3.org/2000/svg">
<g id="Iconly/Bold/Arrow---Left-Square">
<g id="Arrow---Left-Square">
<path id="Vector" d="M11.565 0.267578C14.389 0.267578 16.293 2.08438 16.293 4.79558V11.7316C16.293 14.4436 14.389 16.2676 11.565 16.2676H5.02897C2.19697 16.2676 0.292969 14.4436 0.292969 11.7316V4.79558C0.292969 2.08438 2.19697 0.267578 5.02897 0.267578H11.565ZM8.46097 4.84358C8.22897 4.61158 7.84497 4.61158 7.61297 4.84358L4.59697 7.84358C4.37297 8.06758 4.37297 8.46758 4.59697 8.69158L7.61297 11.6916C7.84497 11.9236 8.22897 11.9236 8.46097 11.6916C8.69297 11.4516 8.69297 11.0756 8.46097 10.8356L6.47697 8.86758H11.557C11.893 8.86758 12.157 8.59558 12.157 8.26758C12.157 7.93158 11.893 7.66758 11.557 7.66758H6.47697L8.46097 5.69158C8.57297 5.57958 8.63697 5.41958 8.63697 5.26758C8.63697 5.11638 8.57297 4.96358 8.46097 4.84358Z" fill="#323232"/>
</g>
</g>
</svg>
