<svg width="41" height="179" viewBox="0 0 41 179" fill="none" xmlns="http://www.w3.org/2000/svg">
<path d="M28.4879 178.482C29.3027 178.632 30.0846 178.093 30.2344 177.278L32.6748 164C32.8246 163.186 32.2855 162.404 31.4707 162.254C30.6559 162.104 29.874 162.643 29.7242 163.458L27.555 175.26L15.7527 173.091C14.9379 172.941 14.156 173.48 14.0062 174.295C13.8565 175.11 14.3956 175.892 15.2104 176.042L28.4879 178.482ZM38.1716 0.973712C12.5654 27.9276 -25.433 101.05 27.5242 177.858L29.994 176.155C-21.8488 100.963 15.2861 29.4194 40.3466 3.03996L38.1716 0.973712Z" fill="#CDB7FF"/>
</svg>
