<svg width="41" height="42" viewBox="0 0 41 42" fill="none" xmlns="http://www.w3.org/2000/svg">

<path fill-rule="evenodd" clip-rule="evenodd" d="M20.7324 41.0156C31.7954 41.0156 40.7637 32.0473 40.7637 20.9844C40.7637 9.92142 31.7954 0.953125 20.7324 0.953125C9.66947 0.953125 0.701172 9.92142 0.701172 20.9844C0.701172 32.0473 9.66947 41.0156 20.7324 41.0156ZM26.1334 31.5203C22.9832 31.5203 19.1306 29.0726 15.9586 25.9005C12.7865 22.7394 10.3827 18.9198 10.3827 15.7696C10.3827 14.3757 10.8547 13.1134 11.9194 12.0926C12.567 11.467 13.3133 11.1377 14.0377 11.1377C14.6305 11.1377 15.1683 11.3682 15.5524 11.8951L17.9123 15.2208C18.2745 15.7367 18.4611 16.1648 18.4611 16.5599C18.4611 17.0648 18.1647 17.5038 17.6818 18.0087L16.9025 18.81C16.7818 18.9307 16.7379 19.0734 16.7379 19.2161C16.7379 19.3807 16.8037 19.5344 16.8586 19.6551C17.2098 20.3357 18.2086 21.4991 19.2843 22.5748C20.3709 23.6504 21.5344 24.6493 22.2149 25.0115C22.3247 25.0663 22.4893 25.1322 22.654 25.1322C22.7966 25.1322 22.9503 25.0773 23.071 24.9566L23.8503 24.1883C24.3552 23.6943 24.8053 23.409 25.2992 23.409C25.6943 23.409 26.1224 23.5846 26.6383 23.9358L30.0079 26.3286C30.5238 26.7018 30.7323 27.2286 30.7323 27.7774C30.7323 28.5238 30.3701 29.2812 29.7884 29.9287C28.7896 31.0263 27.5493 31.5203 26.1334 31.5203Z" fill="#00C76E"/>

</svg>
