<svg width="54" height="55" viewBox="0 0 54 55" fill="none" xmlns="http://www.w3.org/2000/svg">
<g id="Layer_1" clip-path="url(#clip0_413_3317)">
<path id="Vector" d="M12.995 29.1267C17.1454 25.2387 18.5602 20.0053 16.1549 17.4376C13.7496 14.87 8.43506 15.9403 4.2846 19.8283C0.134142 23.7163 -1.28058 28.9497 1.12473 31.5173C3.53003 34.085 8.84453 33.0147 12.995 29.1267Z" fill="url(#paint0_linear_413_3317)"/>
<path id="Vector_2" d="M30.0689 13.1274C31.0899 9.7605 27.5057 5.69318 22.0634 4.04278C16.621 2.39239 11.3814 3.78388 10.3604 7.15077C9.33941 10.5177 12.9236 14.585 18.366 16.2354C23.8083 17.8858 29.0479 16.4943 30.0689 13.1274Z" fill="url(#paint1_linear_413_3317)"/>
<path id="Vector_3" d="M40.7553 23.0243C44.1816 22.225 45.9119 17.0874 44.62 11.549C43.3281 6.01057 39.5033 2.1687 36.077 2.96792C32.6506 3.76714 30.9203 8.90481 32.2122 14.4432C33.5041 19.9816 37.329 23.8235 40.7553 23.0243Z" fill="url(#paint2_linear_413_3317)"/>
<path id="Vector_4" d="M49.4012 34.8356C53.5517 30.9476 54.9664 25.7143 52.5611 23.1466C50.1558 20.5789 44.8413 21.6493 40.6908 25.5373C36.5404 29.4253 35.1257 34.6587 37.531 37.2263C39.9363 39.794 45.2508 38.7237 49.4012 34.8356Z" fill="url(#paint3_linear_413_3317)"/>
<path id="Vector_5" d="M43.3267 47.5083C44.3477 44.1414 40.7635 40.074 35.3212 38.4236C29.8788 36.7732 24.6393 38.1647 23.6182 41.5316C22.5972 44.8985 26.1814 48.9658 31.6238 50.6162C37.0661 52.2666 42.3057 50.8751 43.3267 47.5083Z" fill="url(#paint4_linear_413_3317)"/>
<path id="Vector_6" d="M17.6088 51.6961C21.0351 50.8969 22.7654 45.7593 21.4735 40.2208C20.1817 34.6824 16.3568 30.8406 12.9305 31.6398C9.50414 32.439 7.77384 37.5767 9.06573 43.1151C10.3576 48.6535 14.1825 52.4954 17.6088 51.6961Z" fill="url(#paint5_linear_413_3317)"/>
</g>
<defs>
<linearGradient id="paint0_linear_413_3317" x1="17.594" y1="20.249" x2="13.8972" y2="33.8357" gradientUnits="userSpaceOnUse">
<stop stop-color="white"/>
<stop offset="1" stop-color="#834DFF"/>
</linearGradient>
<linearGradient id="paint1_linear_413_3317" x1="26.6025" y1="5.98282" x2="25.9778" y2="15.9227" gradientUnits="userSpaceOnUse">
<stop stop-color="white"/>
<stop offset="1" stop-color="#834DFF"/>
</linearGradient>
<linearGradient id="paint2_linear_413_3317" x1="45.2095" y1="16.45" x2="36.2889" y2="20.8789" gradientUnits="userSpaceOnUse">
<stop stop-color="white"/>
<stop offset="1" stop-color="#834DFF"/>
</linearGradient>
<linearGradient id="paint3_linear_413_3317" x1="54.0002" y1="25.9579" x2="50.3035" y2="39.5447" gradientUnits="userSpaceOnUse">
<stop stop-color="white"/>
<stop offset="1" stop-color="#834DFF"/>
</linearGradient>
<linearGradient id="paint4_linear_413_3317" x1="39.8603" y1="40.3637" x2="39.2356" y2="50.3035" gradientUnits="userSpaceOnUse">
<stop stop-color="white"/>
<stop offset="1" stop-color="#834DFF"/>
</linearGradient>
<linearGradient id="paint5_linear_413_3317" x1="22.063" y1="45.1219" x2="13.1425" y2="49.5508" gradientUnits="userSpaceOnUse">
<stop stop-color="white"/>
<stop offset="1" stop-color="#834DFF"/>
</linearGradient>
<clipPath id="clip0_413_3317">
<rect width="53.7747" height="53.7747" fill="white" transform="translate(0 0.612305)"/>
</clipPath>
</defs>
</svg>
