<svg width="21" height="20" viewBox="0 0 21 20" fill="none" xmlns="http://www.w3.org/2000/svg">
<rect width="20" height="20" transform="translate(0.398438)" fill="none"/>
<path d="M6.11621 18.9912C4.70117 18.9912 3.98047 18.2617 3.98047 16.7236V10.1934C3.98047 8.83105 4.56934 8.10156 5.71191 7.96973V5.94824C5.71191 2.81055 7.82129 1.00879 10.3965 1.00879C12.9717 1.00879 15.0898 2.81055 15.0898 5.94824V7.96973C16.2324 8.10156 16.8125 8.83105 16.8125 10.1934V16.7236C16.8125 18.2617 16.0918 18.9912 14.6855 18.9912H6.11621ZM7.80371 5.84277V7.94336H13.0068V5.84277C13.0068 4.06738 11.8379 3.03027 10.3965 3.03027C8.95508 3.03027 7.80371 4.06738 7.80371 5.84277ZM6.73145 16.9785H14.0703C14.4131 16.9785 14.5977 16.7852 14.5977 16.3896V10.5361C14.5977 10.1494 14.4131 9.95605 14.0703 9.95605H6.73145C6.38867 9.95605 6.19531 10.1494 6.19531 10.5361V16.3896C6.19531 16.7852 6.38867 16.9785 6.73145 16.9785Z" fill="#592CBF"/>
</svg>
