<svg width="20" height="20" viewBox="0 0 20 20" fill="none" xmlns="http://www.w3.org/2000/svg">
<rect width="20" height="20" fill="none"/>
<path d="M10.1444 18.7729C10.1708 18.5532 10.1532 18.3071 10.0917 18.0522L9.77528 16.7603H14.4511C14.7938 16.7603 14.9696 16.5669 14.9696 16.1714V10.3179C14.9696 9.93115 14.7938 9.73779 14.4511 9.73779H10.8563L8.69422 8.75342C8.83485 8.40186 8.87879 8.09424 8.87879 7.7251H13.3876V5.62451C13.3876 3.84912 12.2098 2.81201 10.7772 2.81201C9.3534 2.81201 8.21082 3.81396 8.18446 5.83545C7.63074 5.17627 6.80457 4.90381 6.14539 4.92139C6.47059 2.28467 8.43055 0.790527 10.7772 0.790527C13.3524 0.790527 15.4706 2.59229 15.4706 5.72998V7.75146C16.6132 7.8833 17.1932 8.61279 17.1932 9.9751V16.5054C17.1932 18.0435 16.4725 18.7729 15.0575 18.7729H10.1444ZM6.09266 9.17529C5.27528 9.17529 4.60731 8.51611 4.60731 7.68994C4.60731 6.86377 5.27528 6.1958 6.09266 6.1958C6.92762 6.1958 7.57801 6.86377 7.57801 7.68994C7.57801 8.51611 6.92762 9.17529 6.09266 9.17529ZM6.09266 14.4663C5.88172 14.4663 5.72352 14.5806 5.67078 14.8091L4.66883 18.6851C4.44031 19.5552 3.23621 19.2563 3.36805 18.4214C3.41199 18.1138 4.28211 14.8267 4.41395 14.0884C4.50184 13.5347 4.45789 12.1372 4.45789 11.5747C4.45789 11.3901 4.29969 11.2847 4.10633 11.3638L2.41004 12.0493C1.95301 12.2339 1.6366 12.0142 1.53114 11.7241C1.41688 11.4165 1.54871 11.0386 1.99696 10.854L3.84266 10.0806C4.24696 9.92236 4.60731 9.82568 5.02039 9.77295C5.3368 9.93994 5.69715 10.0366 6.09266 10.0366C6.47938 10.0366 6.83973 9.93994 7.16492 9.77295C7.56922 9.82568 7.92957 9.92236 8.33387 10.0806L10.1796 10.854C10.6278 11.0386 10.7597 11.4165 10.6454 11.7241C10.5399 12.0142 10.2235 12.2339 9.76649 12.0493L8.0702 11.3638C7.87684 11.2847 7.71864 11.3901 7.71864 11.5747C7.71864 12.1372 7.67469 13.5347 7.76258 14.0884C7.89442 14.8267 8.76453 18.1138 8.81727 18.4214C8.94031 19.2563 7.73621 19.5552 7.5077 18.6851L6.50574 14.8091C6.45301 14.5806 6.29481 14.4663 6.09266 14.4663Z" fill="#592CBF"/>
</svg>
