<svg width="51" height="51" viewBox="0 0 51 51" fill="none" xmlns="http://www.w3.org/2000/svg">
<g id="Frame 6357398">
<path id="Vector" d="M36.2703 5.64453C39.2133 5.64453 42.0444 6.8077 44.1272 8.89481C46.2121 10.9775 47.3774 13.7867 47.3774 16.7275V34.0653C47.3774 40.1884 42.3956 45.1483 36.2703 45.1483H14.5893C8.46404 45.1483 3.48438 40.1884 3.48438 34.0653V16.7275C3.48438 10.6044 8.4421 5.64453 14.5893 5.64453H36.2703ZM38.7525 17.0567C38.2916 17.0326 37.8526 17.1884 37.5213 17.4957L27.6256 25.3964C26.3527 26.452 24.5289 26.452 23.2363 25.3964L13.3603 17.4957C12.6778 16.9909 11.7341 17.0567 11.1657 17.6493C10.5731 18.2418 10.5073 19.1855 11.0098 19.8439L11.2973 20.1292L21.283 27.9203C22.512 28.8859 24.0022 29.4126 25.5626 29.4126C27.1186 29.4126 28.6351 28.8859 29.8619 27.9203L39.762 19.9976L39.9376 19.822C40.4621 19.1855 40.4621 18.2638 39.9134 17.6273C39.6084 17.3003 39.1892 17.1006 38.7525 17.0567Z" fill="#717171"/>
</g>
</svg>
