<svg width="24" height="24" viewBox="0 0 24 24" fill="none" xmlns="http://www.w3.org/2000/svg">
<path id="Vector" fill-rule="evenodd" clip-rule="evenodd" d="M0.953125 12.1592C0.953125 9.1742 2.1389 6.31148 4.2496 4.20078C6.3603 2.09008 9.22303 0.904297 12.208 0.904297C15.193 0.904297 18.0557 2.09008 20.1664 4.20078C22.2771 6.31148 23.4629 9.1742 23.4629 12.1592C23.4629 15.1442 22.2771 18.0069 20.1664 20.1176C18.0557 22.2283 15.193 23.4141 12.208 23.4141C9.22303 23.4141 6.3603 22.2283 4.2496 20.1176C2.1389 18.0069 0.953125 15.1442 0.953125 12.1592ZM9.94296 8.06803C10.1094 7.97687 10.2974 7.93228 10.487 7.93896C10.6767 7.94565 10.861 8.00336 11.0206 8.10602L15.9446 11.2715C16.0933 11.367 16.2156 11.4983 16.3003 11.6534C16.3851 11.8085 16.4295 11.9824 16.4295 12.1592C16.4295 12.3359 16.3851 12.5098 16.3003 12.6649C16.2156 12.82 16.0933 12.9514 15.9446 13.0469L11.0206 16.2123C10.8612 16.315 10.6771 16.3728 10.4876 16.3796C10.2981 16.3865 10.1103 16.3422 9.94389 16.2513C9.77747 16.1605 9.63861 16.0265 9.54189 15.8634C9.44518 15.7003 9.39419 15.5142 9.39429 15.3246V8.99374C9.39427 8.80441 9.44521 8.61856 9.54175 8.45568C9.63828 8.29281 9.77687 8.15891 9.94296 8.06803Z" fill="#6244A8"/>
</svg>
