<svg xmlns="http://www.w3.org/2000/svg" width="179" height="163" viewBox="0 0 179 163" fill="none">
    <path d="M67.2357 52.7949C66.8075 53.1437 66.743 53.7736 67.0918 54.2018C67.4406 54.63 68.0704 54.6945 68.4987 54.3457L67.2357 52.7949ZM103.613 75.0327C103.978 75.447 104.61 75.4868 105.025 75.1215L111.776 69.1701C112.19 68.8049 112.23 68.1729 111.865 67.7587C111.5 67.3444 110.868 67.3046 110.453 67.6698L104.452 72.96L99.1621 66.9588C98.7969 66.5445 98.165 66.5048 97.7507 66.87C97.3364 67.2352 97.2966 67.8671 97.6618 68.2814L103.613 75.0327ZM68.4987 54.3457C77.6168 46.9198 86.6715 46.2143 93.196 50.0175C99.753 53.8396 104.114 62.4197 103.365 74.3086L105.361 74.4342C106.142 62.0361 101.603 52.6027 94.2032 48.2896C86.7711 43.9574 76.8131 44.9949 67.2357 52.7949L68.4987 54.3457Z" fill="#CDB7FF"/>
</svg>