<svg width="24" height="38" viewBox="0 0 24 38" fill="none" xmlns="http://www.w3.org/2000/svg">
<g id="Frame 314824">
<path id="Star 1" d="M10.4095 3.9248L11.4176 10.9829C11.7923 13.6062 13.7006 15.7506 16.2627 16.4273L20.4089 17.5223L16.2627 18.6173C13.7006 19.294 11.7923 21.4384 11.4176 24.0617L10.4095 31.1198L9.40144 24.0617C9.02676 21.4384 7.11843 19.294 4.55633 18.6173L0.410156 17.5223L4.55633 16.4273C7.11843 15.7506 9.02676 13.6062 9.40144 10.9829L10.4095 3.9248Z" fill="url(#paint0_linear_174_8145)"/>
<path id="Star 2" d="M19.0187 22.2207L19.4418 25.1828C19.599 26.2837 20.3999 27.1837 21.4752 27.4676L23.2152 27.9272L21.4752 28.3867C20.3999 28.6707 19.599 29.5707 19.4418 30.6716L19.0187 33.6337L18.5957 30.6716C18.4384 29.5707 17.6375 28.6707 16.5623 28.3867L14.8223 27.9272L16.5623 27.4676C17.6375 27.1837 18.4384 26.2837 18.5957 25.1828L19.0187 22.2207Z" fill="url(#paint1_linear_174_8145)"/>
</g>
<defs>
<linearGradient id="paint0_linear_174_8145" x1="10.4095" y1="3.9248" x2="10.4095" y2="31.1198" gradientUnits="userSpaceOnUse">
<stop stop-color="#6F8BFF"/>
<stop offset="1" stop-color="#723DEB"/>
</linearGradient>
<linearGradient id="paint1_linear_174_8145" x1="19.0187" y1="22.2207" x2="19.0187" y2="33.6337" gradientUnits="userSpaceOnUse">
<stop stop-color="#6F8BFF"/>
<stop offset="1" stop-color="#723DEB"/>
</linearGradient>
</defs>
</svg>
