<svg width="15" height="20" viewBox="0 0 15 20" fill="none" xmlns="http://www.w3.org/2000/svg">
<g id="Group 5">
<path id="Vector" d="M3.73789 8.57461C3.73789 7.91181 3.20069 7.37461 2.53789 7.37461C1.87509 7.37461 1.33789 7.91181 1.33789 8.57461V12.5746C1.33789 15.8882 4.02429 18.5746 7.33789 18.5746C10.6515 18.5746 13.3379 15.8882 13.3379 12.5746V9.37461C13.3379 8.71181 12.8007 8.17461 12.1379 8.17461C11.4751 8.17461 10.9379 8.71181 10.9379 9.37461V8.57461C10.9379 7.91181 10.4007 7.37461 9.73789 7.37461C9.07509 7.37461 8.53789 7.91181 8.53789 8.57461V7.77461C8.53789 7.11181 8.00069 6.57461 7.33789 6.57461C6.67509 6.57461 6.13789 7.11181 6.13789 7.77461V2.17461C6.13789 1.51181 5.60069 0.974609 4.93789 0.974609C4.27509 0.974609 3.73789 1.51181 3.73789 2.17461V11.3746V8.57461Z" stroke="#6244A8" stroke-width="1.78484" stroke-miterlimit="10" stroke-linecap="round" stroke-linejoin="round"/>
<path id="Vector_2" d="M13.7387 2.97461H8.13867" stroke="#6244A8" stroke-width="0.892422" stroke-miterlimit="10" stroke-linecap="round" stroke-linejoin="round"/>
<path id="Vector_3" d="M12.5371 1.77441L13.7371 2.97441L12.5371 4.17441" stroke="#6244A8" stroke-width="0.892422" stroke-miterlimit="10" stroke-linecap="round" stroke-linejoin="round"/>
<path id="Vector_4" d="M9.33867 1.77441L8.13867 2.97441L9.33867 4.17441" stroke="#6244A8" stroke-width="0.892422" stroke-miterlimit="10" stroke-linecap="round" stroke-linejoin="round"/>
</g>
</svg>
