<svg width="84" height="79" viewBox="0 0 84 79" fill="none" xmlns="http://www.w3.org/2000/svg">
<g id="Frame 6357406">
<g id="Iconly/Bold/Calendar">
<path id="Union" fill-rule="evenodd" clip-rule="evenodd" d="M18.8373 12.0303C18.8373 10.8675 17.8676 9.9248 16.6716 9.9248C15.4755 9.9248 14.5059 10.8675 14.5059 12.0303V14.1493C10.0273 14.4054 6.49414 18.0022 6.49414 22.4048V35.3422C6.49414 39.9112 10.3161 43.6123 15.0174 43.6123H31.6579C36.3591 43.6123 40.1828 39.9112 40.1828 35.3422V22.4048C40.1828 20.2104 39.2884 18.1142 37.6881 16.5601C36.2096 15.1195 34.2395 14.2689 32.1646 14.1493V12.0303C32.1646 10.8675 31.195 9.9248 29.9989 9.9248C28.8029 9.9248 27.8332 10.8675 27.8332 12.0303V14.1347H18.8373V12.0303ZM32.0023 26.7677C33.1984 26.7677 34.168 25.825 34.168 24.6622C34.168 23.4993 33.1984 22.5566 32.0023 22.5566H14.6767C13.4806 22.5566 12.511 23.4993 12.511 24.6622C12.511 25.825 13.4806 26.7677 14.6767 26.7677H32.0023ZM34.168 33.085C34.168 34.2479 33.1984 35.1906 32.0023 35.1906H14.6767C13.4806 35.1906 12.511 34.2479 12.511 33.085C12.511 31.9222 13.4806 30.9795 14.6767 30.9795H32.0023C33.1984 30.9795 34.168 31.9222 34.168 33.085Z" fill="#6244A8"/>
</g>
<g id="Iconly/Bold/Calendar_2">
<path id="Union_2" fill-rule="evenodd" clip-rule="evenodd" d="M57.8626 42.1983C57.8626 41.0355 56.893 40.0928 55.6969 40.0928C54.5009 40.0928 53.5312 41.0355 53.5312 42.1983V44.3193C49.0527 44.5753 45.5195 48.1721 45.5195 52.5748V65.5122C45.5195 70.0812 49.3415 73.7823 54.0428 73.7823H70.6833C75.3845 73.7823 79.2082 70.0812 79.2082 65.5122V52.5748C79.2082 50.3803 78.3137 48.2842 76.7135 46.73C75.2349 45.2895 73.2649 44.4388 71.19 44.3193V42.1983C71.19 41.0355 70.2204 40.0928 69.0243 40.0928C67.8282 40.0928 66.8586 41.0355 66.8586 42.1983V44.3047H57.8626V42.1983ZM71.0257 56.9367C72.2218 56.9367 73.1914 55.994 73.1914 54.8311C73.1914 53.6683 72.2218 52.7256 71.0257 52.7256H53.7001C52.504 52.7256 51.5344 53.6683 51.5344 54.8311C51.5344 55.994 52.504 56.9367 53.7001 56.9367H71.0257ZM73.1914 63.254C73.1914 64.4168 72.2218 65.3595 71.0257 65.3595H53.7001C52.504 65.3595 51.5344 64.4168 51.5344 63.254C51.5344 62.0911 52.504 61.1484 53.7001 61.1484H71.0257C72.2218 61.1484 73.1914 62.0911 73.1914 63.254Z" fill="#6244A8"/>
</g>
<g id="Group 39893">
<path id="Rectangle 3986" d="M18.1172 48.9927L18.1172 53.9955C18.1172 60.3919 23.3025 65.5771 29.6988 65.5771L34.7016 65.5771" stroke="#6244A8" stroke-width="3.47449" stroke-linecap="round"/>
<path id="Rectangle 3988" d="M22.9619 51.7636L18.1172 46.9189L13.2725 51.7636" stroke="#6244A8" stroke-width="3.47449" stroke-linecap="round" stroke-linejoin="round"/>
</g>
<g id="Group 39894">
<path id="Rectangle 3986_2" d="M60.2656 32.8569L60.2656 27.8541C60.2656 21.4577 55.0804 16.2725 48.684 16.2725L43.6812 16.2725" stroke="#6244A8" stroke-width="3.47449" stroke-linecap="round"/>
<path id="Rectangle 3988_2" d="M55.4209 30.086L60.2656 34.9307L65.1103 30.086" stroke="#6244A8" stroke-width="3.47449" stroke-linecap="round" stroke-linejoin="round"/>
</g>
</g>
</svg>
