<svg width="51" height="51" viewBox="0 0 51 51" fill="none" xmlns="http://www.w3.org/2000/svg">
<g id="Frame 6357399">
<path id="SF Symbol / phone.fill" d="M17.2148 33.2013C22.8815 38.8681 29.7639 43.2406 35.3914 43.2406C37.9208 43.2406 40.1365 42.3583 41.9208 40.3975C42.96 39.2406 43.6071 37.8877 43.6071 36.5543C43.6071 35.5739 43.2346 34.6327 42.313 33.9661L36.2933 29.6915C35.3718 29.0641 34.607 28.7503 33.9012 28.7503C33.0188 28.7503 32.2149 29.2601 31.3129 30.1425L29.9207 31.5151C29.705 31.7307 29.4305 31.8288 29.1756 31.8288C28.8815 31.8288 28.5874 31.7111 28.3913 31.6131C27.1756 30.966 25.0972 29.1817 23.156 27.2601C21.2344 25.3385 19.4501 23.2601 18.8226 22.0444C18.7246 21.8287 18.6069 21.5542 18.6069 21.2601C18.6069 21.0052 18.6854 20.7503 18.901 20.5346L20.2932 19.1032C21.156 18.2012 21.6854 17.4169 21.6854 16.515C21.6854 15.8091 21.352 15.0444 20.705 14.1228L16.4893 8.18156C15.803 7.24038 14.8422 6.82861 13.7834 6.82861C12.4892 6.82861 11.1559 7.41685 9.99902 8.53451C8.09705 10.358 7.25391 12.613 7.25391 15.1032C7.25391 20.7307 11.5481 27.5542 17.2148 33.2013Z" fill="#717171"/>
</g>
</svg>
