<svg width="84" height="79" viewBox="0 0 84 79" fill="none" xmlns="http://www.w3.org/2000/svg">
<g id="Frame 6357406">
<g id="Ellipse 179" filter="url(#filter0_b_202_10239)">
<circle cx="41.6927" cy="43.1459" r="25.2591" fill="#6244A8"/>
</g>
<circle id="Ellipse 180" cx="41.6931" cy="43.1462" r="29.947" stroke="#6244A8" stroke-width="2" stroke-linecap="round"/>
<g id="Subtract">
<mask id="path-3-inside-1_202_10239" fill="white">
<path d="M36.3956 48.6682C40.2118 52.4994 44.8468 55.4556 48.6366 55.4556C50.34 55.4556 51.8322 54.8591 53.0338 53.5334C53.7337 52.7512 54.1695 51.8365 54.1695 50.9351C54.1695 50.2722 53.9186 49.6359 53.2979 49.1852L49.244 46.2952C48.6234 45.871 48.1084 45.6589 47.633 45.6589C47.0388 45.6589 46.4974 46.0036 45.89 46.6001L44.9524 47.5281C44.8072 47.6739 44.6223 47.7402 44.4506 47.7402C44.2525 47.7402 44.0545 47.6607 43.9224 47.5944C43.1037 47.1569 41.704 45.9506 40.3967 44.6514C39.1026 43.3522 37.901 41.947 37.4784 41.1251C37.4124 40.9793 37.3332 40.7937 37.3332 40.5948C37.3332 40.4225 37.386 40.2502 37.5312 40.1043L38.4688 39.1366C39.0498 38.5268 39.4063 37.9965 39.4063 37.3867C39.4063 36.9095 39.1819 36.3925 38.7461 35.7694L35.907 31.7526C35.4449 31.1163 34.7978 30.8379 34.0847 30.8379C33.2132 30.8379 32.3153 31.2356 31.5362 31.9912C30.2553 33.2241 29.6875 34.7486 29.6875 36.4322C29.6875 40.2369 32.5794 44.8502 36.3956 48.6682Z"/>
</mask>
<path d="M36.3956 48.6682C40.2118 52.4994 44.8468 55.4556 48.6366 55.4556C50.34 55.4556 51.8322 54.8591 53.0338 53.5334C53.7337 52.7512 54.1695 51.8365 54.1695 50.9351C54.1695 50.2722 53.9186 49.6359 53.2979 49.1852L49.244 46.2952C48.6234 45.871 48.1084 45.6589 47.633 45.6589C47.0388 45.6589 46.4974 46.0036 45.89 46.6001L44.9524 47.5281C44.8072 47.6739 44.6223 47.7402 44.4506 47.7402C44.2525 47.7402 44.0545 47.6607 43.9224 47.5944C43.1037 47.1569 41.704 45.9506 40.3967 44.6514C39.1026 43.3522 37.901 41.947 37.4784 41.1251C37.4124 40.9793 37.3332 40.7937 37.3332 40.5948C37.3332 40.4225 37.386 40.2502 37.5312 40.1043L38.4688 39.1366C39.0498 38.5268 39.4063 37.9965 39.4063 37.3867C39.4063 36.9095 39.1819 36.3925 38.7461 35.7694L35.907 31.7526C35.4449 31.1163 34.7978 30.8379 34.0847 30.8379C33.2132 30.8379 32.3153 31.2356 31.5362 31.9912C30.2553 33.2241 29.6875 34.7486 29.6875 36.4322C29.6875 40.2369 32.5794 44.8502 36.3956 48.6682Z" fill="white"/>
<path d="M36.3956 48.6682L36.4878 48.5764L36.4876 48.5762L36.3956 48.6682ZM53.0338 53.5334L53.1302 53.6208L53.1308 53.6202L53.0338 53.5334ZM53.2979 49.1852L53.3744 49.0799L53.3735 49.0792L53.2979 49.1852ZM49.244 46.2952L49.3196 46.1893L49.3174 46.1878L49.244 46.2952ZM45.89 46.6001L45.7988 46.5073L45.7984 46.5077L45.89 46.6001ZM44.9524 47.5281L44.8609 47.4356L44.8602 47.4363L44.9524 47.5281ZM43.9224 47.5944L43.8611 47.7092L43.8641 47.7107L43.9224 47.5944ZM40.3967 44.6514L40.3045 44.7432L40.305 44.7437L40.3967 44.6514ZM37.4784 41.1251L37.3597 41.1788L37.3627 41.1846L37.4784 41.1251ZM37.5312 40.1043L37.6234 40.1962L37.6247 40.1949L37.5312 40.1043ZM38.4688 39.1366L38.5622 39.2271L38.563 39.2263L38.4688 39.1366ZM38.7461 35.7694L38.8527 35.6948L38.8523 35.6943L38.7461 35.7694ZM35.907 31.7526L36.0133 31.6775L36.0123 31.6761L35.907 31.7526ZM31.5362 31.9912L31.6264 32.085L31.6268 32.0846L31.5362 31.9912ZM36.3034 48.76C38.2178 50.6819 40.3395 52.3864 42.4609 53.6113C44.5807 54.8352 46.7099 55.5857 48.6366 55.5857V55.3255C46.7734 55.3255 44.6902 54.5979 42.5911 53.3859C40.4935 52.1749 38.3897 50.4857 36.4878 48.5764L36.3034 48.76ZM48.6366 55.5857C50.3742 55.5857 51.9023 54.9755 53.1302 53.6208L52.9374 53.446C51.7621 54.7427 50.3058 55.3255 48.6366 55.3255V55.5857ZM53.1308 53.6202C53.8446 52.8224 54.2996 51.8781 54.2996 50.9351H54.0393C54.0393 51.7949 53.6228 52.6801 52.9369 53.4466L53.1308 53.6202ZM54.2996 50.9351C54.2996 50.2369 54.0336 49.5586 53.3744 49.0799L53.2215 49.2905C53.8036 49.7132 54.0393 50.3075 54.0393 50.9351H54.2996ZM53.3735 49.0792L49.3195 46.1893L49.1685 46.4012L53.2224 49.2911L53.3735 49.0792ZM49.3174 46.1878C48.6887 45.758 48.1472 45.5288 47.633 45.5288V45.789C48.0696 45.789 48.5581 45.984 49.1706 46.4026L49.3174 46.1878ZM47.633 45.5288C46.985 45.5288 46.4114 45.9057 45.7988 46.5073L45.9811 46.693C46.5834 46.1015 47.0926 45.789 47.633 45.789V45.5288ZM45.7984 46.5077L44.8609 47.4356L45.0439 47.6206L45.9815 46.6926L45.7984 46.5077ZM44.8602 47.4363C44.7405 47.5565 44.5893 47.6101 44.4506 47.6101V47.8703C44.6553 47.8703 44.8738 47.7914 45.0446 47.6199L44.8602 47.4363ZM44.4506 47.6101C44.2832 47.6101 44.1072 47.5415 43.9808 47.4781L43.8641 47.7107C44.0018 47.7798 44.2219 47.8703 44.4506 47.8703V47.6101ZM43.9837 47.4796C43.1839 47.0522 41.7963 45.8589 40.4884 44.5591L40.305 44.7437C41.6117 46.0422 43.0235 47.2616 43.8611 47.7091L43.9837 47.4796ZM40.4889 44.5596C39.844 43.9121 39.2227 43.2388 38.7106 42.6259C38.1968 42.0109 37.7985 41.4632 37.5941 41.0656L37.3627 41.1846C37.5809 41.6089 37.9947 42.1748 38.5109 42.7927C39.0288 43.4126 39.6554 44.0915 40.3045 44.7432L40.4889 44.5596ZM37.5969 41.0714C37.5305 40.9246 37.4633 40.7624 37.4633 40.5948H37.203C37.203 40.825 37.2943 41.0339 37.3599 41.1788L37.5969 41.0714ZM37.4633 40.5948C37.4633 40.4511 37.5063 40.3138 37.6234 40.1962L37.4391 40.0125C37.2657 40.1866 37.203 40.3939 37.203 40.5948H37.4633ZM37.6247 40.1949L38.5622 39.2271L38.3753 39.0461L37.4378 40.0138L37.6247 40.1949ZM38.563 39.2263C39.1467 38.6137 39.5364 38.0509 39.5364 37.3867H39.2762C39.2762 37.9421 38.9529 38.4398 38.3746 39.0468L38.563 39.2263ZM39.5364 37.3867C39.5364 36.8691 39.2933 36.3249 38.8527 35.6948L38.6395 35.844C39.0704 36.4601 39.2762 36.9499 39.2762 37.3867H39.5364ZM38.8523 35.6943L36.0133 31.6775L35.8008 31.8277L38.6398 35.8445L38.8523 35.6943ZM36.0123 31.6761C35.5233 31.0028 34.8352 30.7078 34.0847 30.7078V30.968C34.7604 30.968 35.3664 31.2297 35.8018 31.8291L36.0123 31.6761ZM34.0847 30.7078C33.1727 30.7078 32.2437 31.1238 31.4456 31.8978L31.6268 32.0846C32.3869 31.3474 33.2538 30.968 34.0847 30.968V30.7078ZM31.446 31.8975C30.1373 33.1571 29.5574 34.7166 29.5574 36.4322H29.8176C29.8176 34.7807 30.3733 33.2911 31.6264 32.085L31.446 31.8975ZM29.5574 36.4322C29.5574 38.3656 30.2914 40.4929 31.4974 42.6096C32.7043 44.7279 34.3891 46.8448 36.3036 48.7602L36.4876 48.5762C34.5859 46.6736 32.9166 44.5749 31.7235 42.4808C30.5296 40.3853 29.8176 38.3035 29.8176 36.4322H29.5574Z" fill="url(#paint0_linear_202_10239)" mask="url(#path-3-inside-1_202_10239)"/>
</g>
<path id="Vector 370" d="M42.0605 12.1988V8.00098" stroke="#6244A8" stroke-width="3" stroke-linecap="round"/>
<path id="Vector 371" d="M37.7687 8.00098H46.3535" stroke="#6244A8" stroke-width="3" stroke-linecap="round"/>
<path id="Vector 437" d="M58.6309 17.7334L60.9801 14.7676" stroke="#6244A8" stroke-width="3" stroke-linecap="round"/>
<g id="Group 39895">
<path id="Vector 438" d="M41.7246 20.999L41.7246 23.1477" stroke="white" stroke-width="2" stroke-linecap="round"/>
<path id="Vector 439" d="M41.7246 62.9648L41.7246 65.1135" stroke="white" stroke-width="2" stroke-linecap="round"/>
</g>
<g id="Group 39897">
<path id="Vector 438_2" d="M52.9531 24.0713L51.8592 25.9206" stroke="white" stroke-width="2" stroke-linecap="round"/>
<path id="Vector 439_2" d="M31.5879 60.1914L30.494 62.0407" stroke="white" stroke-width="2" stroke-linecap="round"/>
</g>
<g id="Group 39899">
<path id="Vector 438_3" d="M60.3047 31.1709L58.4947 32.3287" stroke="white" stroke-width="2" stroke-linecap="round"/>
<path id="Vector 439_3" d="M24.9531 53.7842L23.1431 54.942" stroke="white" stroke-width="2" stroke-linecap="round"/>
</g>
<g id="Group 39896">
<path id="Vector 438_4" d="M63.7812 43.0557L61.6326 43.0557" stroke="white" stroke-width="2" stroke-linecap="round"/>
<path id="Vector 439_4" d="M21.8145 43.0557L19.6658 43.0557" stroke="white" stroke-width="2" stroke-linecap="round"/>
</g>
<g id="Group 39898">
<path id="Vector 438_5" d="M60.709 54.2852L58.8597 53.1913" stroke="white" stroke-width="2" stroke-linecap="round"/>
<path id="Vector 439_5" d="M24.5898 32.9199L22.7405 31.826" stroke="white" stroke-width="2" stroke-linecap="round"/>
</g>
<g id="Group 39900">
<path id="Vector 438_6" d="M53.6094 61.6377L52.4516 59.8277" stroke="white" stroke-width="2" stroke-linecap="round"/>
<path id="Vector 439_6" d="M30.9961 26.2852L29.8383 24.4751" stroke="white" stroke-width="2" stroke-linecap="round"/>
</g>
</g>
<defs>
<filter id="filter0_b_202_10239" x="15.0674" y="16.5206" width="53.2499" height="53.2509" filterUnits="userSpaceOnUse" color-interpolation-filters="sRGB">
<feFlood flood-opacity="0" result="BackgroundImageFix"/>
<feGaussianBlur in="BackgroundImageFix" stdDeviation="0.683084"/>
<feComposite in2="SourceAlpha" operator="in" result="effect1_backgroundBlur_202_10239"/>
<feBlend mode="normal" in="SourceGraphic" in2="effect1_backgroundBlur_202_10239" result="shape"/>
</filter>
<linearGradient id="paint0_linear_202_10239" x1="31.5501" y1="30.8379" x2="31.5501" y2="55.4556" gradientUnits="userSpaceOnUse">
<stop stop-color="white" stop-opacity="0.71"/>
<stop offset="1" stop-color="white" stop-opacity="0.1"/>
</linearGradient>
</defs>
</svg>
