<svg width="48" height="48" viewBox="0 0 48 48" fill="none" xmlns="http://www.w3.org/2000/svg">
<g id="Frame 6357374">
<g id="Subtract" filter="url(#filter0_i_254_2005)">
<path fill-rule="evenodd" clip-rule="evenodd" d="M23.8545 47.7532C36.8672 47.7532 47.416 37.1629 47.416 24.0992C47.416 11.0355 36.8672 0.445312 23.8545 0.445312C10.8418 0.445312 0.292969 11.0355 0.292969 24.0992C0.292969 37.1629 10.8418 47.7532 23.8545 47.7532ZM30.2082 36.5404C26.5029 36.5404 21.9713 33.6501 18.2402 29.9044C14.509 26.1716 11.6816 21.6611 11.6816 17.9413C11.6816 16.2952 12.2368 14.8047 13.4891 13.5993C14.2508 12.8605 15.1287 12.4717 15.9808 12.4717C16.678 12.4717 17.3106 12.7439 17.7625 13.366L20.5382 17.2932C20.9643 17.9024 21.1837 18.4079 21.1837 18.8745C21.1837 19.4707 20.8352 19.9891 20.2671 20.5853L19.3505 21.5315C19.2084 21.6741 19.1568 21.8426 19.1568 22.011C19.1568 22.2055 19.2343 22.3869 19.2988 22.5295C19.712 23.3331 20.8868 24.707 22.152 25.9771C23.4302 27.2473 24.7987 28.4268 25.5991 28.8545C25.7282 28.9193 25.9219 28.9971 26.1155 28.9971C26.2834 28.9971 26.4641 28.9323 26.6061 28.7897L27.5228 27.8824C28.1167 27.2992 28.646 26.9622 29.227 26.9622C29.6917 26.9622 30.1952 27.1696 30.802 27.5843L34.7656 30.4098C35.3723 30.8505 35.6176 31.4726 35.6176 32.1207C35.6176 33.0021 35.1916 33.8964 34.5073 34.6611C33.3325 35.9572 31.8736 36.5404 30.2082 36.5404Z" fill="white"/>
</g>
</g>
<defs>
<filter id="filter0_i_254_2005" x="0.292969" y="0.445312" width="47.5525" height="47.7371" filterUnits="userSpaceOnUse" color-interpolation-filters="sRGB">
<feFlood flood-opacity="0" result="BackgroundImageFix"/>
<feBlend mode="normal" in="SourceGraphic" in2="BackgroundImageFix" result="shape"/>
<feColorMatrix in="SourceAlpha" type="matrix" values="0 0 0 0 0 0 0 0 0 0 0 0 0 0 0 0 0 0 127 0" result="hardAlpha"/>
<feOffset dx="0.429437" dy="0.429437"/>
<feGaussianBlur stdDeviation="0.901818"/>
<feComposite in2="hardAlpha" operator="arithmetic" k2="-1" k3="1"/>
<feColorMatrix type="matrix" values="0 0 0 0 0.531375 0 0 0 0 0.416619 0 0 0 0 0.792627 0 0 0 0.45 0"/>
<feBlend mode="normal" in2="shape" result="effect1_innerShadow_254_2005"/>
</filter>
</defs>
</svg>
